<svg width="472" height="351" viewBox="0 0 472 351" fill="none" xmlns="http://www.w3.org/2000/svg">
<path d="M268.381 169.02C276.61 141.592 281.215 137.02 283.881 133.52C288.381 136.02 290.305 138.735 293.881 144.52C310.881 172.02 329.381 195.52 340.881 212.52C338.381 222.52 320.381 256.02 306.881 277.52C293.381 299.02 276.428 315.427 270.381 320.52C260.881 328.52 254.381 321.52 253.381 316.02C252.381 310.52 251.881 286.02 254.381 252.52C256.881 219.02 265.381 179.02 268.381 169.02Z" fill="white"/>
<path d="M102.381 349.52C98.8813 348.02 80.4181 330.02 76.3813 325.52C66.2146 314.187 42.1813 284.02 27.3813 254.02C8.88127 216.52 -6.61872 166.52 2.88127 91.5199C8.84528 44.4356 18.8505 27.7142 23.3813 17.5197C27.3813 8.51953 33.7146 -0.480086 35.8813 0.0199143C40.7146 1.01991 58.2813 8.11989 81.8813 26.5199C111.381 49.5199 140.381 89.0199 159.881 140.52C179.381 192.02 179.381 228.02 179.881 243.02C180.381 258.02 183.881 344.02 175.381 347.52C161.881 349.52 166.381 338.52 167.881 308.52C169.381 278.52 168.881 249.52 167.881 230.02C166.881 210.52 156.881 136.02 115.881 79.5199C83.0813 34.3199 51.3813 14.0199 36.8813 8.51989C34.3813 10.5199 27.5813 24.9199 16.3813 60.5199C2.38128 105.02 6.88128 140.52 8.88128 168.02C10.8813 198.52 22.3063 238.52 51.8813 284.02C71.3813 314.02 94.3813 335.02 102.381 342.52C110.381 350.02 105.881 351.02 102.381 349.52Z" fill="black"/>
<path d="M213.381 345.02C210.381 344.52 207.881 338.52 205.881 312.02C204.881 292.52 205.381 265.52 206.381 243.02C207.381 220.52 211.881 184.02 216.881 166.52C221.881 149.02 231.381 116.02 259.381 90.0197C292.881 58.9126 303.881 58.0197 337.881 58.5197C371.881 59.0197 395.881 82.5197 411.881 109.02C427.881 135.52 444.381 177.02 459.381 188.52C484.383 207.688 466.881 219.52 449.381 229.02C431.881 238.52 400.881 238.52 387.381 235.02C376.581 232.22 374.548 231.02 373.381 234.52C372.381 237.52 366.581 249.62 351.381 274.02C332.381 304.52 305.881 344.52 298.381 346.52C290.881 348.52 289.381 350.52 311.381 321.52C333.381 292.52 356.381 251.02 362.381 240.52C368.381 230.02 366.881 230.02 365.381 229.02C335.881 217.02 306.381 178.02 299.881 163.02C293.216 147.639 286.27 134.953 281.381 132.02C273.881 127.52 267.037 129.422 270.881 127.02C278.881 122.02 290.881 126.52 304.381 153.02C317.615 178.998 339.881 212.52 383.881 224.02C427.881 235.52 447.381 217.52 456.881 211.02C466.381 204.52 454.749 202.84 440.881 184.02C426.881 165.02 423.881 154.02 412.381 131.02C400.881 108.02 385.381 82.5197 365.881 75.0197C346.381 67.5197 328.881 62.5197 297.881 75.0197C266.881 87.5197 244.381 119.52 232.381 151.02C220.381 182.52 219.381 210.02 216.881 237.02C214.381 264.02 215.381 313.52 217.381 328.52C219.381 343.52 216.381 345.52 213.381 345.02Z" fill="black"/>
<path d="M130.881 194.02C116.081 136.02 87.3813 97.5727 72.8813 80.0197C69.7146 76.1863 62.3813 68.0197 59.3813 65.0197C56.3813 62.0197 45.8813 55.5197 41.8813 78.5197C37.8813 101.52 35.8813 142.52 48.8813 196.02C61.8813 249.52 94.3813 293.02 112.881 313.02C131.381 333.02 132.381 333.02 135.381 325.52C138.381 318.02 149.381 266.52 130.881 194.02Z" fill="white"/>
</svg>
