<svg width="472" height="472" viewBox="0 0 472 472" fill="none" xmlns="http://www.w3.org/2000/svg">
  <defs>
    <!-- Gradients -->
    
  </defs>

  <!-- Background Rect (if any) -->
  <rect width="472" height="472" rx="80" fill="white"/>

  <!-- Leaping Bunny (Centered with 76px padding, 1.25 scale) -->
  <g transform="translate(76, 76) scale(1.25)">
    <path d="M 150.332 7.577 C 149.586 9.522, 150.700 22.165, 152.064 27.236 C 152.868 30.222, 154.520 32.048, 160.285 36.318 C 169.204 42.926, 180.455 54.800, 188.950 66.570 C 192.495 71.482, 195.869 75.831, 196.448 76.235 C 198.222 77.473, 205.027 77.092, 205.552 75.725 C 206.276 73.838, 198.652 53.023, 192.880 41.129 C 186.294 27.560, 175.825 16.590, 163.347 10.185 C 154.643 5.717, 151.303 5.048, 150.332 7.577 M 110.499 26.002 C 109.422 27.744, 113.943 42.086, 118.070 50.018 C 128.376 69.827, 141.283 80.068, 168.500 90.031 C 173.450 91.843, 177.915 93.690, 178.423 94.136 C 181.194 96.568, 171.085 107.848, 162.221 112.213 L 155.548 115.500 120.524 116 L 85.500 116.500 79.797 119.300 C 73.678 122.306, 66.149 129.827, 62.915 136.167 C 59.498 142.865, 58 150.916, 58 162.584 C 58 182.297, 52.667 190.567, 38.360 193.040 C 28.549 194.736, 28.088 194.929, 26.494 198.011 C 23.701 203.412, 5 248.291, 5 249.592 C 5 252.949, 13.121 251.877, 20.514 247.545 C 26.491 244.042, 29.845 239.245, 35.050 226.754 C 37.401 221.114, 39.756 215.938, 40.284 215.250 C 40.975 214.351, 45.355 213.998, 55.872 213.994 C 63.918 213.991, 73.200 213.550, 76.500 213.014 C 95.270 209.964, 112.723 192.613, 117.080 172.669 C 118.613 165.654, 118.063 165.038, 110.250 165.015 C 106.723 165.005, 105.001 164.590, 105.003 163.750 C 105.008 161.460, 126.102 133.999, 127.836 134.025 C 129.584 134.051, 148.801 159.522, 149.718 163.028 C 150.184 164.811, 149.715 165, 144.817 165 C 141.837 165, 138.860 165.540, 138.200 166.200 C 136.560 167.840, 136.560 187.160, 138.200 188.800 C 139.080 189.680, 147.363 190, 169.232 190 C 202.349 190, 202.991 190.105, 209 196.468 C 213.104 200.814, 218.057 203.556, 224.356 204.968 C 232.795 206.859, 234.061 203.820, 229.134 193.500 C 222.835 180.308, 211.187 171.897, 198.762 171.568 C 194.171 171.446, 192.443 171.017, 192.261 169.951 C 192.014 168.499, 208.806 145.375, 211.220 143.843 C 211.924 143.396, 217.450 143.022, 223.500 143.012 C 235.474 142.991, 238.978 141.800, 243.714 136.144 C 246.459 132.866, 246.547 130.350, 244.050 126.562 C 241.649 122.919, 242.161 122, 246.590 122 C 252.420 122, 251.960 119.843, 243.469 107.359 C 230.163 87.798, 223.046 83.249, 204.175 82.251 C 192.420 81.629, 194.995 83.467, 182.801 67 C 166.382 44.827, 150.501 33.501, 127.425 27.506 C 117.225 24.856, 111.521 24.349, 110.499 26.002 M 124.525 38.960 C 123.670 40.342, 129.141 50.733, 133.876 56.724 C 140.955 65.680, 154.090 73.712, 171.232 79.569 C 175.282 80.952, 178.202 81.483, 178.562 80.900 C 179.452 79.460, 169.041 66.355, 160.227 57.820 C 151.745 49.607, 144.208 44.777, 133.479 40.681 C 125.595 37.671, 125.351 37.624, 124.525 38.960 M 67.794 82.690 C 64.066 83.020, 62.560 83.734, 60.544 86.130 C 58.016 89.134, 58 89.275, 58 107.910 C 58 118.226, 58.287 126.954, 58.638 127.304 C 58.988 127.655, 61.865 125.254, 65.030 121.969 C 68.942 117.908, 72.981 114.956, 77.642 112.748 L 84.500 109.500 120 109 C 154.395 108.516, 155.644 108.429, 160.118 106.225 C 165.383 103.631, 168.502 100.621, 167.539 99.063 C 167.103 98.357, 158.303 98, 141.356 98 L 115.829 98 112.665 94.306 C 110.924 92.274, 107.845 88.787, 105.823 86.556 L 102.146 82.500 87.323 82.387 C 79.170 82.325, 70.382 82.461, 67.794 82.690 M 209.460 102.065 C 208.271 103.989, 210.035 109.911, 212.262 111.471 C 214.627 113.127, 221.653 113.506, 223.877 112.097 C 225.751 110.910, 221.719 103.648, 218.327 102.103 C 215.247 100.700, 210.317 100.679, 209.460 102.065 M 34.289 132.111 C 32.743 133.657, 33.733 145.392, 35.756 149.500 C 38.671 155.418, 44.441 160, 48.978 160 C 50.996 160, 51.047 159.599, 50.777 145.750 L 50.500 131.500 42.988 131.212 C 38.166 131.027, 35.051 131.349, 34.289 132.111 M 43.348 224.750 C 42.495 226.813, 39.774 233.165, 37.301 238.866 C 33.426 247.797, 32.999 249.428, 34.217 250.645 C 37.651 254.080, 50.614 248.306, 56.348 240.788 C 59.518 236.633, 65.288 223.275, 64.479 221.966 C 64.151 221.435, 59.611 221, 54.390 221 L 44.898 221 43.348 224.750" fill="black" fill-rule="evenodd" />
  </g>
</svg>
