<svg width="472" height="472" viewBox="0 0 472 472" fill="none" xmlns="http://www.w3.org/2000/svg">
  <defs>
    <!-- Background Gradient (if any) -->
    
    
    <!-- Arrow Cutout Mask -->
    <mask id="arrow-mask">
      <!-- White keeps the shape -->
      <rect x="-50" y="-50" width="572" height="572" fill="white" />
      <!-- Black cuts out the arrow -->
      <path d="M 250 240 L 210 280 H 235 V 325 H 265 V 280 H 290 Z" fill="black" transform="translate(-10, 14)" />
    </mask>
  </defs>

  <!-- Background (if any) -->
  <rect width="472" height="472" rx="80" fill="#2463eb"/>

  <!-- Leaping Bunny Group with Mask -->
  <g mask="url(#arrow-mask)">
    <g transform="translate(-10, 14)">
      <!-- Main Body -->
      <path d="M 330 200 C 360 200, 390 220, 390 250 C 390 270, 375 285, 355 290 C 345 295, 360 330, 370 350 C 375 360, 360 370, 345 360 C 330 350, 310 320, 300 300 C 270 300, 230 300, 200 300 C 170 310, 140 350, 125 365 C 115 375, 105 365, 115 350 C 125 330, 155 290, 155 260 C 145 260, 135 270, 125 270 C 110 270, 100 255, 100 240 C 100 225, 115 210, 135 210 C 175 210, 220 205, 290 200 Z" fill="white" />
      <!-- Ear 1 -->
      <path d="M 315 205 C 300 170, 260 110, 245 95 C 235 85, 250 75, 265 85 C 285 105, 325 170, 330 205 Z" fill="white" />
      <!-- Ear 2 -->
      <path d="M 300 205 C 285 175, 245 120, 230 105 C 220 95, 235 85, 250 95 C 270 115, 310 175, 315 205 Z" fill="white" opacity="0.8" />
    </g>
  </g>
</svg>
